<svg width="51" height="35" viewBox="0 0 51 35" fill="none" xmlns="http://www.w3.org/2000/svg">
<path d="M19.1 33.1999C20.3 33.1999 21.3 32.2999 21.4 30.9999V30.8999V4.1999C21.4 2.8999 20.5 1.8999 19.2 1.8999H19.1C18.2 1.8999 17.6 2.2999 16.6 3.1999L9.2 10.0999C9.1 10.1999 9 10.1999 8.8 10.1999H4C1.4 10.1999 0 11.5999 0 14.2999V20.6999C0 23.3999 1.4 24.7999 4 24.7999H8.9C9 24.7999 9.2 24.7999 9.3 24.8999L16.7 31.7999C17.5 32.7999 18.2 33.1999 19.1 33.1999Z" fill="#23382B"/>
<path d="M27.4996 25.2998C28.1996 25.7998 29.2996 25.5998 29.7996 24.8998C31.1996 22.9998 31.9996 20.2998 31.9996 17.5998C31.9996 14.9998 31.2996 12.3998 29.7996 10.2998C29.2996 9.59982 28.2996 9.39982 27.4996 9.89982C26.5996 10.4998 26.4996 11.4998 27.1996 12.4998C28.1996 13.9998 28.6996 15.7998 28.6996 17.6998C28.6996 19.4998 28.1996 21.2998 27.1996 22.7998C26.4996 23.6998 26.6996 24.6998 27.4996 25.2998Z" fill="#23382B"/>
<path d="M34.7004 29.9002C35.5004 30.4002 36.5004 30.2002 37.0004 29.4002C39.3004 26.2002 40.6004 21.9002 40.6004 17.5002C40.6004 13.1002 39.3004 8.80023 37.0004 5.60023C36.5004 4.80023 35.5004 4.60023 34.7004 5.10023C33.9004 5.60023 33.8004 6.70023 34.4004 7.60023C38.3004 13.6002 38.3004 21.4002 34.4004 27.4002C33.8004 28.4002 33.9004 29.4002 34.7004 29.9002Z" fill="#23382B"/>
<path d="M42.0004 34.6002C42.8004 35.1002 43.8004 34.9002 44.3004 34.1002C44.3004 34.1002 44.3004 34.1002 44.3004 34.0002C47.4004 29.4002 49.2004 23.6002 49.2004 17.5002C49.2004 11.6002 47.5004 5.90021 44.3004 1.00021C43.8004 0.200206 42.8004 -0.0997939 42.0004 0.400206C42.0004 0.400206 41.9004 0.400206 41.9004 0.500206C41.2004 1.00021 41.0004 2.00021 41.6004 2.90021C44.4004 7.20021 45.9004 12.3002 45.9004 17.5002C45.9004 22.9002 44.3004 28.1002 41.6004 32.1002C41.0004 33.0002 41.2004 34.1002 42.0004 34.6002Z" fill="#23382B"/>
</svg>
